<svg xmlns="http://www.w3.org/2000/svg" class="ionicon" viewBox="0 0 512 512">
    <g id="briefcase">
        <rect x="32" y="128" width="448" height="320" rx="48" ry="48" fill="none" stroke="white"
              stroke-linejoin="round" stroke-width="32"/>
        <path d="M144 128V96a32 32 0 0132-32h160a32 32 0 0132 32v32M480 240H32M320 240v24a8 8 0 01-8 8H200a8 8 0 01-8-8v-24"
              fill="none" stroke="white" stroke-linecap="round" stroke-linejoin="round" stroke-width="32"/>
    </g>

    <!--<svg width="32" height="32" viewBox="0 0 32 32" fill="none" xmlns="http://www.w3.org/2000/svg">-->
    <g id="linkedin">
        <rect x="0.5" y="0.5" width="31" height="31" rx="2.5" fill="white"/>
        <rect x="0.5" y="0.5" width="31" height="31" rx="2.5" stroke="black"/>
        <g id="Union">
            <path d="M6.33333 2.5C4.76853 2.5 3.5 3.76853 3.5 5.33333C3.5 6.89814 4.76853 8.16667 6.33333 8.16667C7.89814 8.16667 9.16667 6.89814 9.16667 5.33333C9.16667 3.76853 7.89814 2.5 6.33333 2.5Z"
                  fill="black"/>
            <path d="M3.66667 10.5C3.57462 10.5 3.5 10.5746 3.5 10.6667V28C3.5 28.092 3.57462 28.1667 3.66667 28.1667H9C9.09205 28.1667 9.16667 28.092 9.16667 28V10.6667C9.16667 10.5746 9.09205 10.5 9 10.5H3.66667Z"
                  fill="black"/>
            <path d="M12.3333 10.5C12.2413 10.5 12.1667 10.5746 12.1667 10.6667V28C12.1667 28.092 12.2413 28.1667 12.3333 28.1667H17.6667C17.7587 28.1667 17.8333 28.092 17.8333 28V18.6667C17.8333 18.0036 18.0967 17.3677 18.5656 16.8989C19.0344 16.4301 19.6703 16.1667 20.3333 16.1667C20.9964 16.1667 21.6323 16.4301 22.1011 16.8989C22.5699 17.3677 22.8333 18.0036 22.8333 18.6667V28C22.8333 28.092 22.908 28.1667 23 28.1667H28.3333C28.4254 28.1667 28.5 28.092 28.5 28V16.507C28.5 13.2713 25.6859 10.74 22.4665 11.0327C21.4736 11.1229 20.4919 11.3697 19.5753 11.7626L17.8333 12.5091V10.6667C17.8333 10.5746 17.7587 10.5 17.6667 10.5H12.3333Z"
                  fill="black"/>
        </g>
    </g>

    <!--<svg width="32" height="32" viewBox="0 0 32 32" fill="none" xmlns="http://www.w3.org/2000/svg">-->
    <g id="github">
        <rect x="0.5" y="0.5" width="31" height="31" stroke="black"/>
        <path id="Icon" fill-rule="evenodd" clip-rule="evenodd"
              d="M16.0001 1C7.52841 1 0.666748 7.86167 0.666748 16.3333C0.666748 23.1183 5.05591 28.8492 11.1509 30.8808C11.9176 31.015 12.2051 30.555 12.2051 30.1525C12.2051 29.7883 12.1859 28.5808 12.1859 27.2967C8.33342 28.0058 7.33675 26.3575 7.03008 25.495C6.85758 25.0542 6.11008 23.6933 5.45842 23.3292C4.92175 23.0417 4.15508 22.3325 5.43925 22.3133C6.64675 22.2942 7.50925 23.425 7.79675 23.885C9.17675 26.2042 11.3809 25.5525 12.2626 25.15C12.3967 24.1533 12.7992 23.4825 13.2401 23.0992C9.82842 22.7158 6.26342 21.3933 6.26342 15.5283C6.26342 13.8608 6.85758 12.4808 7.83508 11.4075C7.68175 11.0242 7.14508 9.4525 7.98841 7.34417C7.98841 7.34417 9.27258 6.94167 12.2051 8.91583C13.4317 8.57083 14.7351 8.39833 16.0384 8.39833C17.3417 8.39833 18.6451 8.57083 19.8717 8.91583C22.8042 6.9225 24.0884 7.34417 24.0884 7.34417C24.9317 9.4525 24.3951 11.0242 24.2417 11.4075C25.2192 12.4808 25.8134 13.8417 25.8134 15.5283C25.8134 21.4125 22.2292 22.7158 18.8176 23.0992C19.3734 23.5783 19.8526 24.4983 19.8526 25.9358C19.8526 27.9867 19.8334 29.635 19.8334 30.1525C19.8334 30.555 20.1209 31.0342 20.8876 30.8808C26.9443 28.8492 31.3334 23.0992 31.3334 16.3333C31.3334 7.86167 24.4717 1 16.0001 1Z"
              fill="white"/>
    </g>

    <!--<svg width="35" height="30" viewBox="0 0 35 30" fill="none" xmlns="http://www.w3.org/2000/svg">-->
    <g id="telegram">
        <path id="Vector"
              d="M32.3422 0.806046L32.3422 0.806092L32.3487 0.80344C33.4758 0.340243 33.9967 0.488143 34.2149 0.713626C34.3379 0.840761 34.4457 1.06132 34.4847 1.429C34.5238 1.79625 34.4897 2.27446 34.3631 2.86451L34.3623 2.86834L29.2282 27.7531L29.2282 27.7531L29.227 27.759C29.0369 28.7402 28.7286 29.2242 28.4099 29.4023C28.1292 29.5591 27.6464 29.5754 26.8015 29.0689L18.9962 23.086L18.6539 22.8237L18.3441 23.1237L13.7826 27.5418C13.5977 27.7022 13.3915 27.7567 13.2203 27.7254C13.0766 27.6991 12.8826 27.5983 12.7095 27.2978L13.2013 21.1566L29.5742 5.98202C29.5748 5.98145 29.5754 5.98089 29.576 5.98032C29.7104 5.85807 29.8239 5.73376 29.9094 5.6072C29.9928 5.48376 30.068 5.33112 30.0858 5.15739C30.1055 4.96669 30.0523 4.76946 29.9101 4.61451C29.7805 4.47329 29.6161 4.40958 29.4827 4.3812C29.2208 4.32553 28.9212 4.37051 28.6455 4.45908C28.362 4.5502 28.0556 4.70267 27.7573 4.91757L8.73492 16.9514L1.03101 14.4453C0.761914 14.3197 0.62534 14.1898 0.561027 14.0919C0.501373 14.0011 0.489518 13.9182 0.507942 13.8298C0.551525 13.6206 0.798092 13.2944 1.34658 13.0409L32.3422 0.806046Z"
              fill="white" stroke="black"/>
    </g>
</svg>